<svg xmlns="http://www.w3.org/2000/svg" width="512" height="512"><g fill-rule="evenodd" clip-rule="evenodd"><path d="M191.263 480.733c-1.479.08-2.428.178-3.377.178-21.747.006-43.493.086-65.24-.035-10.997-.063-21.573-2.186-31.46-7.309-19.321-10.008-25.197-32.672-13.107-50.838 6.833-10.266 16.674-17.201 26.851-23.559 15.57-9.725 31.589-18.736 47.104-28.545 6.276-3.969 11.971-8.977 17.474-14.01 4.026-3.684 5.812-8.639 4.446-14.67-1.372.186-2.723.248-4.013.563a7616.933 7616.933 0 0 0-39.994 9.816c-7.359 1.834-14.629 3.359-21.844-.662-11.135-6.207-16.735-16.678-13.909-29.211 2.186-9.691 5.841-19.07 9.094-28.503a24940.498 24940.498 0 0 1 32.071-92.359c4.111-11.771 12.02-20.428 23.681-24.511 15.062-5.274 30.407-9.82 45.813-14.006 41.382-11.247 82.182-7.499 122.487 5.654 8.184 2.67 16.389 5.295 24.47 8.249 11.138 4.071 19.059 11.736 23.648 22.661 2.894 6.885 5.669 13.835 8.137 20.882 10.897 31.114 21.781 62.234 32.357 93.458 1.688 4.982 2.43 10.5 2.493 15.783.169 13.955-15.185 27.885-30.618 23.826a2400.66 2400.66 0 0 0-37.017-9.396c-4.069-1.002-8.236-1.604-12.479-2.41-.951 4.719-.277 8.684 2.901 11.533 4.068 3.646 8.273 7.328 12.963 10.064 21.489 12.533 42.662 25.545 62.715 40.289 4.806 3.535 9.747 7.166 13.624 11.625 9.169 10.543 10.741 23.375 8.891 36.686-.929 6.68-5.315 11.473-10.695 15.238-9.56 6.693-20.526 9.789-31.861 11.199-10.766 1.338-21.647 2.332-32.483 2.395-45.116.258-90.236.109-135.354.107m67.312-205.942c.075-1.369.163-1.736.104-2.078-2.858-16.633-6.55-33.061-12.873-48.767-3.648-9.065-7.838-17.877-15.397-24.506-7.524-6.599-16.76-6.836-23.999-.012-3.664 3.454-6.895 7.602-9.459 11.945-8.223 13.924-12.218 29.434-15.844 45.015-1.316 5.658-2.232 11.408-3.331 17.115 1.331-.646 1.928-1.539 2.438-2.479 4.404-8.119 8.493-16.429 13.273-24.32 4.382-7.231 8.996-14.443 14.431-20.886 6.617-7.845 13.566-7.805 20.349-.159 4.688 5.285 8.801 11.194 12.445 17.261 6.09 10.136 11.6 20.621 17.863 31.871z"/><path d="M317.44 92.4c-.002 33.708-27.584 61.349-61.265 61.395-33.913.045-61.421-27.564-61.366-61.595.053-33.832 27.547-61.229 61.375-61.16 33.803.068 61.259 27.57 61.256 61.36z"/></g></svg>