<?xml version="1.0" encoding="utf-8"?>
<!-- Generator: Adobe Illustrator 16.0.0, SVG Export Plug-In . SVG Version: 6.00 Build 0)  -->
<!DOCTYPE svg PUBLIC "-//W3C//DTD SVG 1.1//EN" "http://www.w3.org/Graphics/SVG/1.1/DTD/svg11.dtd">
<svg version="1.1" id="Layer_2" xmlns="http://www.w3.org/2000/svg" xmlns:xlink="http://www.w3.org/1999/xlink" x="0px" y="0px"
	 width="512px" height="512px" viewBox="0 0 512 512" enable-background="new 0 0 512 512" xml:space="preserve">
<g>
	<path fill-rule="evenodd" clip-rule="evenodd" d="M229.032,480.915c45.119,0.002,90.238,0.151,135.354-0.107
		c10.836-0.063,21.717-1.057,32.483-2.395c11.335-1.41,22.301-4.506,31.86-11.199c5.381-3.765,9.767-8.558,10.695-15.238
		c1.851-13.311,0.278-26.143-8.891-36.686c-3.877-4.459-8.818-8.09-13.624-11.625c-20.053-14.744-41.227-27.756-62.715-40.289
		c-4.69-2.735-8.896-6.418-12.963-10.063c-3.179-2.85-3.853-6.814-2.901-11.533c4.243,0.806,8.41,1.408,12.479,2.41
		c12.362,3.041,24.706,6.158,37.018,9.396c15.433,4.06,30.787-9.871,30.618-23.826c-0.063-5.282-0.806-10.801-2.493-15.782
		c-10.576-31.225-21.46-62.345-32.357-93.458c-2.468-7.047-5.243-13.997-8.137-20.882c-4.589-10.925-12.51-18.59-23.648-22.661
		c-8.081-2.954-16.285-5.579-24.47-8.249c-40.305-13.153-81.105-16.901-122.487-5.654c-15.406,4.186-30.751,8.731-45.813,14.006
		c-11.661,4.083-19.57,12.74-23.681,24.511c-10.744,30.768-21.448,61.55-32.071,92.359c-3.253,9.433-6.908,18.812-9.094,28.503
		c-2.826,12.533,2.774,23.004,13.909,29.211c7.215,4.021,14.485,2.496,21.844,0.662c13.32-3.316,26.656-6.572,39.994-9.816
		c1.29-0.314,2.641-0.377,4.013-0.563c1.366,6.031-0.42,10.986-4.446,14.67c-5.503,5.033-11.198,10.041-17.474,14.01
		c-15.515,9.809-31.534,18.82-47.104,28.545c-10.177,6.358-20.018,13.293-26.851,23.559c-12.09,18.166-6.214,40.83,13.107,50.839
		c9.887,5.123,20.463,7.246,31.46,7.309c21.747,0.121,43.493,0.041,65.24,0.035c0.949,0,1.898-0.099,3.377-0.178 M296.344,274.973
		c0.075-1.369,0.163-1.736,0.104-2.078c-2.858-16.633-6.55-33.061-12.873-48.767c-3.648-9.065-7.839-17.877-15.397-24.506
		c-7.523-6.599-16.76-6.836-23.999-0.012c-3.664,3.454-6.895,7.602-9.459,11.945c-8.223,13.924-12.218,29.434-15.844,45.015
		c-1.316,5.658-2.232,11.408-3.331,17.115c1.331-0.646,1.928-1.539,2.438-2.479c4.404-8.119,8.493-16.429,13.273-24.32
		c4.382-7.231,8.996-14.443,14.431-20.886c6.617-7.845,13.566-7.805,20.349-0.159c4.688,5.285,8.801,11.194,12.444,17.261
		C284.57,253.238,290.081,263.723,296.344,274.973z"/>
	<path d="M317.44,92.4c-0.003,33.708-27.585,61.349-61.266,61.395c-33.913,0.045-61.421-27.564-61.366-61.595
		c0.053-33.832,27.547-61.229,61.375-61.16C289.986,31.108,317.443,58.61,317.44,92.4z"/>
</g>
</svg>
