<?xml version="1.0" encoding="utf-8"?>
<!-- Generator: Adobe Illustrator 16.0.0, SVG Export Plug-In . SVG Version: 6.00 Build 0)  -->
<!DOCTYPE svg PUBLIC "-//W3C//DTD SVG 1.1//EN" "http://www.w3.org/Graphics/SVG/1.1/DTD/svg11.dtd">
<svg version="1.1" xmlns="http://www.w3.org/2000/svg" xmlns:xlink="http://www.w3.org/1999/xlink" x="0px" y="0px" width="512px"
	 height="512px" viewBox="0 0 512 512" enable-background="new 0 0 512 512" xml:space="preserve">
<g id="Layer_1" display="none">
	<g display="inline">
		<path d="M438.4,192.4c12.199-14.2,19.6-32.3,19.6-52.2c0.1-43.8-35.5-79.6-80.4-82.1c-1.6-0.1-3.1-0.1-4.8-0.1
			c-20.399-0.1-39.1,6.8-53.8,18.1l53.8,52.4l-10.6,10.4c-25.7-19.4-57.2-32-91.2-34.9v-0.1c0-8.5-7-15.5-15.5-15.5
			s-15.5,7-15.5,15.5v0.1c-34,2.9-65,15.5-90.6,34.9L139,128.6l53.8-52.4c-14.7-11.4-33.4-18.2-53.7-18.1c-1.6,0-3.2,0.1-4.8,0.1
			c-45,2.5-80.6,38.3-80.4,82.1c0,19.8,7.4,38,19.6,52.2l54-52.6l9.5,9.5c-35.1,31.9-57.1,78-57.1,129.2c0,43.9,16.2,84,43,114.7
			L86.5,437.9L99,448l35.2-42.9c31.6,30.2,74.4,48.9,121.6,48.9h0.1c0,0,0.2,0,0.3,0c47.2,0,90.2-18.7,121.8-48.9l35.2,43l12.3-10.1
			L389,393.3c26.8-30.8,43-70.899,43-114.7c0-51.1-22-97.3-57.2-129.3l9.5-9.5L438.4,192.4z M272,304H160v-16h96V160h16V304z"/>
	</g>
</g>
<g id="Layer_2">
	<g>
		<path fill-rule="evenodd" clip-rule="evenodd" d="M191.263,480.733c-1.479,0.08-2.428,0.178-3.377,0.178
			c-21.747,0.006-43.493,0.086-65.24-0.035c-10.997-0.063-21.573-2.186-31.46-7.309c-19.321-10.008-25.197-32.672-13.107-50.838
			c6.833-10.266,16.674-17.201,26.851-23.559c15.57-9.725,31.589-18.736,47.104-28.545c6.276-3.969,11.971-8.977,17.474-14.01
			c4.026-3.684,5.812-8.639,4.446-14.67c-1.372,0.186-2.723,0.248-4.013,0.563c-13.338,3.244-26.674,6.5-39.994,9.816
			c-7.359,1.834-14.629,3.359-21.844-0.662c-11.135-6.207-16.735-16.678-13.909-29.211c2.186-9.691,5.841-19.07,9.094-28.503
			c10.623-30.809,21.327-61.591,32.071-92.359c4.111-11.771,12.02-20.428,23.681-24.511c15.062-5.274,30.407-9.82,45.813-14.006
			c41.382-11.247,82.182-7.499,122.487,5.654c8.184,2.67,16.389,5.295,24.47,8.249c11.138,4.071,19.059,11.736,23.648,22.661
			c2.894,6.885,5.669,13.835,8.137,20.882c10.897,31.114,21.781,62.234,32.357,93.458c1.688,4.982,2.43,10.5,2.493,15.783
			c0.169,13.955-15.185,27.885-30.618,23.826c-12.311-3.238-24.655-6.354-37.017-9.396c-4.069-1.002-8.236-1.604-12.479-2.41
			c-0.951,4.719-0.277,8.684,2.901,11.533c4.068,3.646,8.273,7.328,12.963,10.064c21.489,12.533,42.662,25.545,62.715,40.289
			c4.806,3.535,9.747,7.166,13.624,11.625c9.169,10.543,10.741,23.375,8.891,36.686c-0.929,6.68-5.315,11.473-10.695,15.238
			c-9.56,6.693-20.526,9.789-31.861,11.199c-10.766,1.338-21.647,2.332-32.483,2.395c-45.116,0.258-90.236,0.109-135.354,0.107
			 M296.344,274.973c0.075-1.369,0.163-1.736,0.104-2.078c-2.858-16.633-6.55-33.061-12.873-48.767
			c-3.648-9.065-7.838-17.877-15.397-24.506c-7.524-6.599-16.76-6.836-23.999-0.012c-3.664,3.454-6.895,7.602-9.459,11.945
			c-8.223,13.924-12.218,29.434-15.844,45.015c-1.316,5.658-2.232,11.408-3.331,17.115c1.331-0.646,1.928-1.539,2.438-2.479
			c4.404-8.119,8.493-16.429,13.273-24.32c4.382-7.231,8.996-14.443,14.431-20.886c6.617-7.845,13.566-7.805,20.349-0.159
			c4.688,5.285,8.801,11.194,12.445,17.261C284.571,253.238,290.081,263.723,296.344,274.973z"/>
		<path fill-rule="evenodd" clip-rule="evenodd" d="M317.44,92.4c-0.002,33.708-27.584,61.349-61.265,61.395
			c-33.913,0.045-61.421-27.564-61.366-61.595c0.053-33.832,27.547-61.229,61.375-61.16C289.987,31.108,317.443,58.61,317.44,92.4z"
			/>
	</g>
</g>
</svg>
